<?xml version="1.0" encoding="UTF-8" standalone="no"?>
<svg
   version="1.1"
   width="425.19739"
   height="425.1976"
   id="svg32"
   viewBox="0 0 425.19739 425.1976"
   sodipodi:docname="12f86a054e7bf13062d0b121866b7326.cdr"
   xmlns:inkscape="http://www.inkscape.org/namespaces/inkscape"
   xmlns:sodipodi="http://sodipodi.sourceforge.net/DTD/sodipodi-0.dtd"
   xmlns="http://www.w3.org/2000/svg"
   xmlns:svg="http://www.w3.org/2000/svg">
  <defs
     id="defs36" />
  <sodipodi:namedview
     id="namedview34"
     pagecolor="#ffffff"
     bordercolor="#666666"
     borderopacity="1.0"
     inkscape:pageshadow="2"
     inkscape:pageopacity="0.0"
     inkscape:pagecheckerboard="0" />
  <path
     d="M 212.5987,0 A 212.5987,212.5988 0 0 1 425.1974,212.5988 212.5987,212.5988 0 1 1 212.5987,0 Z"
     style="fill:#123ff6;fill-rule:evenodd"
     id="path2" />
  <path
     d="M 212.5987,6.3779 A 206.2208,206.2208 0 0 1 418.8194,212.5987 206.2208,206.2208 0 1 1 212.5987,6.3779 Z"
     style="fill:#fefefe;fill-rule:evenodd"
     id="path4" />
  <path
     d="M 158.113,348.7977 A 146.6931,146.6931 0 0 0 348.7973,267.0835 146.6931,146.6931 0 1 0 158.113,348.7977 Z"
     style="fill:#ffffff;fill-rule:evenodd;stroke:#1b1918;stroke-width:0.5669;stroke-linecap:butt;stroke-linejoin:miter;stroke-dasharray:none"
     id="path6" />
  <path
     d="M 212.5987,12.756 A 199.8428,199.8427 0 0 1 412.4415,212.5987 199.8428,199.8427 0 1 1 212.5987,12.756 Z"
     style="fill:#123ff6;fill-rule:evenodd"
     id="path8" />
  <path
     d="m 238.539,261.5162 24.849,-0.3872 -26.9526,28.9468 23.616,-0.3169 -15.8808,16.6393 -32.2852,33.8279 -0.7328,-48.7361 c -0.0626,-3.6153 -0.7651,-4.7506 1.2297,-6.8176 l 19.4363,-20.8882 c 1.5437,-1.6586 2.0659,-2.2371 6.7204,-2.268 z m 0.3654,-144.5494 0.9258,49.2341 c 0.089,4.0096 -0.3184,3.9572 -2.4509,5.9465 l -21.3735,22.5324 c -1.6112,1.6982 -2.6249,2.4057 -4.9459,2.4502 l -23.3376,0.4493 30.5552,-32.9354 -24.9097,0.3622 z m 23.5048,32.2793 0.7623,48.1305 c 0.0516,3.2956 -0.7756,3.4538 -2.4704,5.2467 l -20.3723,21.5495 c -1.7893,1.8927 -2.3233,2.575 -4.8946,2.5983 l -20.7142,0.1871 28.2637,-30.2409 -26.2446,0.447 z m -27.3985,83.1812 c 3.026,-2.8618 1.3116,-3.4081 7.0843,-3.405 l 20.8219,-0.1919 -25.0594,27.0105 c -2.7368,2.95 -3.8905,3.3347 -7.9563,3.3735 l -20.6506,0.008 z m -30.8713,29.6045 27.2347,-0.4127 -43.2246,45.5601 -0.8272,-49.9516 c -0.0439,-2.6682 0.8104,-3.0928 2.1597,-4.5192 l 20.3928,-21.5564 c 1.2177,-1.2875 2.2056,-1.6087 5.0816,-1.6622 l 19.7805,-0.3705 z m 7.0013,-60.0494 c 2.0676,-2.238 2.8244,-2.4557 5.9131,-2.5033 l 21.0835,-0.3302 -23.703,25.6113 c -1.7578,1.8997 -2.8177,2.3629 -5.3175,2.4026 l -21.551,0.3416 z m -23.5687,-2.0773 22.9663,-0.2562 -28.2809,30.2944 26.6099,-0.4011 -43.5863,46.1103 -1.1075,-49.6218 c -0.0879,-3.9297 0.5337,-5.3578 2.4672,-7.3851 l 15.3769,-16.1218 c 1.5995,-1.6773 3.486,-2.5849 5.5544,-2.6187 z m 4.637,-32.4396 20.4049,-0.2016 -26.4359,28.0877 c -1.0712,1.1384 -2.3667,2.1795 -4.1406,2.3198 l -20.2295,0.0669 25.1125,-26.7273 c 1.8674,-1.9871 3.7196,-3.4565 5.2886,-3.5455 z m 23.5031,-82.4945 0.7702,49.1346 c 0.1213,4.2866 -0.1896,3.917 -2.38,6.1147 L 191.57,163.6704 c -1.0669,1.1106 -1.7025,1.4329 -3.1498,1.4474 l -23.2804,0.2373 30.0966,-32.2257 -25.6748,0.303 z"
     style="fill:#ffffff;fill-rule:evenodd;stroke:#ffffff;stroke-width:7.0866;stroke-linecap:butt;stroke-linejoin:miter;stroke-dasharray:none"
     id="path10" />
  <path
     d="m 211.8854,340.2259 32.2852,-33.8276 15.8809,-16.6396 -23.6162,0.3171 26.9526,-28.947 -24.8488,0.3875 c -4.6546,0.0307 -5.1768,0.6094 -6.7204,2.268 l -19.4364,20.888 c -1.9949,2.067 -1.2922,3.2022 -1.2296,6.8178 z"
     style="fill:#e61a1d;fill-rule:evenodd"
     id="path12" />
  <path
     d="m 193.3677,165.006 24.9097,-0.3621 -30.555,32.9355 23.3376,-0.4494 c 2.321,-0.0445 3.3347,-0.752 4.9457,-2.4503 l 21.3735,-22.5321 c 2.1326,-1.9895 2.5399,-1.9372 2.4509,-5.9468 l -0.9259,-49.2339 z"
     style="fill:#009c49;fill-rule:evenodd"
     id="path14" />
  <path
     d="m 169.5614,133.4325 25.6749,-0.3032 -30.0966,32.2257 23.2805,-0.2371 c 1.4474,-0.0144 2.0827,-0.3369 3.15,-1.4474 l 22.5321,-23.4502 c 2.1904,-2.1976 2.5014,-1.8282 2.3799,-6.1146 l -0.77,-49.1346 z"
     style="fill:#feed02;fill-rule:evenodd"
     id="path16" />
  <path
     d="m 216.7391,197.1643 26.2446,-0.447 -28.2636,30.241 20.7141,-0.1871 c 2.5713,-0.0235 3.1055,-0.7057 4.8946,-2.5983 l 20.3724,-21.5498 c 1.6947,-1.7927 2.5219,-1.9509 2.4702,-5.2465 l -0.7623,-48.1306 z"
     style="fill:#e61a1d;fill-rule:evenodd"
     id="path18" />
  <path
     d="m 165.2811,275.6525 43.5861,-46.1104 -26.6097,0.4013 28.2809,-30.2945 -22.9664,0.2562 c -2.0683,0.0337 -3.9549,0.9415 -5.5546,2.6188 l -15.3767,16.1215 c -1.9336,2.0274 -2.555,3.4556 -2.4672,7.3852 z"
     style="fill:#feed02;fill-rule:evenodd"
     id="path20" />
  <path
     d="m 188.1495,307.1791 43.2246,-45.56 -27.2348,0.4127 30.5977,-32.9126 -19.7804,0.3706 c -2.8763,0.0535 -3.8641,0.3748 -5.0817,1.6622 l -20.3929,21.5563 c -1.3494,1.4264 -2.2036,1.8511 -2.1597,4.5192 z"
     style="fill:#009c49;fill-rule:evenodd"
     id="path22" />
  <path
     d="m 209.2504,259.223 20.651,-0.008 c 4.0655,-0.0391 5.2194,-0.4236 7.9561,-3.3738 l 25.0594,-27.0104 -20.8218,0.1919 c -5.7729,-0.003 -4.0584,0.5433 -7.0844,3.4051 z"
     style="fill:#e61a1d;fill-rule:evenodd"
     id="path24" />
  <path
     d="m 187.5659,227.5045 21.551,-0.3417 c 2.4996,-0.0397 3.5596,-0.5029 5.3175,-2.4028 l 23.7028,-25.6111 -21.0835,0.3303 c -3.0886,0.0475 -3.8454,0.2653 -5.9131,2.5033 z"
     style="fill:#009c49;fill-rule:evenodd"
     id="path26" />
  <path
     d="m 161.8081,197.7382 20.2292,-0.0668 c 1.7741,-0.1401 3.0693,-1.1815 4.1408,-2.3197 l 26.4358,-28.0879 -20.4048,0.2015 c -1.569,0.0891 -3.4213,1.5588 -5.2887,3.5458 z"
     style="fill:#feed02;fill-rule:evenodd"
     id="path28" />
  <path
     d="m 131.9866,350.7556 -2.3255,24.9256 -4.4045,-2.7456 1.806,-19.3567 -17.1953,9.7628 -3.6538,-2.2773 24.3527,-13.8288 c 3.2729,-1.8766 5.8575,-2.8469 7.7434,-2.9087 1.883,-0.072 4.1423,0.7132 6.7771,2.3556 l 0.7256,0.4524 -2.014,3.231 -0.7636,-0.4763 c -1.8394,-1.1466 -3.3942,-1.7149 -4.6741,-1.7033 -1.2739,0.0162 -2.9698,0.6236 -5.0726,1.8142 z m -8.7712,-17.8409 -2.4917,2.9083 c -0.8773,-0.6817 -1.7739,-0.9726 -2.6903,-0.8824 -0.9168,0.0901 -2.0651,0.5887 -3.4606,1.4916 -3.0109,1.9468 -6.2926,4.994 -9.8557,9.153 l -1.5381,1.7958 -11.7562,-10.0712 15.6283,-18.2427 3.2805,2.8103 -13.5051,15.7649 5.2971,4.5377 0.2753,-0.3215 c 4.3444,-5.0712 8.2613,-8.4101 11.7459,-10.0102 3.4084,-1.5463 6.4278,-1.1977 9.0706,1.0664 z m -22.1987,-20.3633 -18.8538,14.885 -2.677,-3.3905 7.6127,-6.0103 -1.2966,-1.6424 c -4.0802,-5.1684 -4.2945,-9.1944 -0.6364,-12.0824 3.8359,-3.0285 7.9277,-1.796 12.2681,3.7021 z m -5.2381,-1.3686 -1.0732,-1.3597 c -2.3145,-2.9316 -4.5329,-3.5595 -6.6558,-1.8837 -1.061,0.838 -1.5599,1.7666 -1.4839,2.7769 0.0802,1.0165 0.7333,2.3068 1.9788,3.8843 l 1.1155,1.4128 z m -21.8676,-20.4003 1.2518,2.1611 c 1.3937,0.3713 3.2062,0.561 5.4357,0.5522 l 2.8031,-0.0289 c 1.2289,-0.0184 2.3052,-0.044 3.233,-0.0703 l 2.4363,4.2055 c -1.8683,-0.1052 -3.6839,-0.1197 -5.4464,-0.0431 l -1.2269,0.0521 c -2.9693,0.1338 -5.123,-0.1788 -6.4514,-0.9348 0.281,1.5706 0.1302,3.0279 -0.4424,4.3908 -0.576,1.3564 -1.4913,2.3981 -2.74,3.1213 -2.2553,1.3064 -4.5082,1.1993 -6.7575,-0.3323 -1.16,-0.7667 -2.5747,-2.5908 -4.2514,-5.4856 l -2.4024,-4.1468 20.7856,-12.0413 2.1657,3.7381 z m -9.5695,5.5434 0.6094,1.0517 c 1.7292,2.9851 3.6919,3.8415 5.8882,2.5693 2.3008,-1.3329 2.5455,-3.5632 0.7333,-6.6912 l -0.485,-0.8374 z m 11.9801,-21.9234 -22.2914,8.9518 -1.6098,-4.0088 9.0428,-3.6314 -4.0584,-10.1058 -9.0428,3.6314 -1.6098,-4.0087 22.2914,-8.9518 1.6101,4.0087 -10.2203,4.1043 4.058,10.1058 10.2204,-4.1043 z m -10.463,-36.0567 c 0.6571,3.4401 0.0726,6.3768 -1.7558,8.8032 -1.8263,2.4336 -4.6403,4.0097 -8.4316,4.7339 -3.7843,0.7231 -6.9733,0.294 -9.561,-1.296 -2.5866,-1.5829 -4.2131,-4.0972 -4.8705,-7.5373 -0.6571,-3.4404 -0.072,-6.3774 1.7484,-8.8024 1.8193,-2.4322 4.6256,-4.0065 8.4098,-4.7296 3.7914,-0.7243 6.988,-0.2968 9.5831,1.292 2.594,1.5812 4.2205,4.0958 4.8776,7.5362 z m -3.2037,0.6196 c -0.4014,-2.0993 -1.5078,-3.5832 -3.3256,-4.4424 -1.8085,-0.8533 -4.1681,-1.0055 -7.0614,-0.4527 -2.8868,0.5513 -5.0159,1.5616 -6.3831,3.0214 -1.358,1.4661 -1.8394,3.2533 -1.4383,5.3527 0.4028,2.1067 1.5092,3.5906 3.3092,4.4379 1.8085,0.853 4.1593,0.9995 7.0455,0.4482 2.8933,-0.5531 5.0321,-1.5571 6.3989,-3.0169 1.3757,-1.4542 1.857,-3.2415 1.4548,-5.3482 z m 0.3614,-18.5329 -24.0211,-0.1539 0.0533,-8.3174 c 0.0156,-2.4222 0.4808,-4.2795 1.3958,-5.586 0.9074,-1.3067 2.1954,-1.9587 3.8574,-1.9479 2.9307,0.0187 4.9983,1.5621 6.2175,4.6224 1.2175,-3.6748 3.397,-5.506 6.5316,-5.4859 1.9037,0.0122 3.3874,0.7044 4.4512,2.0687 1.0642,1.372 1.5886,3.2503 1.5733,5.6353 z m -3.2355,-4.3407 0.0117,-1.8 c 0.0155,-2.4449 -0.1928,-4.0813 -0.6257,-4.9167 -0.4325,-0.8351 -1.2764,-1.2608 -2.5452,-1.2688 -1.3445,-0.009 -2.4434,0.5321 -3.289,1.6138 -0.8453,1.0823 -1.2773,2.5121 -1.2889,4.282 l -0.0131,2.0398 z m -10.6058,-0.068 0.0142,-2.1824 c 0.0212,-3.3151 -1.3127,-4.981 -4.0093,-4.9983 -1.8961,-0.0122 -2.8579,1.5491 -2.8781,4.6839 l -0.0158,2.4526 z M 65.5712,180.352 c 0.4025,2.8948 0.4467,5.3462 0.1321,7.3542 -0.4992,3.1862 -2.0991,5.6379 -4.7934,7.3642 -2.7017,1.7249 -5.8592,2.3082 -9.4638,1.7433 -3.8508,-0.6032 -6.696,-2.1118 -8.5201,-4.5233 -1.832,-2.4125 -2.4525,-5.4782 -1.8697,-9.1978 0.2869,-1.8301 0.8634,-3.85 1.726,-6.0381 l 3.6272,0.5683 c -1.0939,2.2958 -1.7597,4.2033 -1.9964,5.7147 -0.3439,2.1934 0.2095,4.0793 1.6531,5.6492 1.4437,1.5701 3.5419,2.5744 6.2881,3.0047 2.6646,0.4175 4.9207,0.0725 6.7825,-1.025 1.8541,-1.0987 2.9526,-2.7411 3.2975,-4.9417 0.3053,-1.9485 0.1112,-4.0286 -0.5796,-6.2549 z m -6.0818,-13.3696 9.7719,3.0714 -1.2949,4.1213 -22.9167,-7.2026 1.2952,-4.1213 10.0315,3.153 0.0975,-0.3861 c 0.2571,-1.0196 0.2971,-1.8014 0.1146,-2.3542 -0.1852,-0.5453 -0.6974,-1.233 -1.535,-2.0701 l -1.1679,-1.1458 -0.8291,-0.7636 c -1.819,-1.6957 -2.9191,-3.0319 -3.2987,-4.0164 -0.3798,-0.9839 -0.2962,-2.3332 0.2435,-4.0504 l 3.1133,0.9782 c -0.2585,0.8226 -0.2571,1.4995 0.006,2.0225 0.2537,0.5278 0.9859,1.3473 2.1892,2.4568 l 0.7175,0.6656 0.9958,0.8872 c 1.0894,1.0182 1.7785,2.3278 2.0653,3.9351 0.7441,-1.0083 1.5426,-1.7088 2.3729,-2.1079 0.8374,-0.3974 2.3698,-0.7883 4.5896,-1.1755 l 1.8703,-0.3319 c 2.0888,-0.3734 3.8693,-0.773 5.3342,-1.2011 l -1.4301,4.5505 c -0.9949,0.1669 -1.9681,0.3407 -2.931,0.5332 l -2.3587,0.5011 c -3.0872,0.6256 -5.218,1.2844 -6.3938,1.9761 z m 19.2651,-27.9425 c 1.0168,3.3869 0.9973,6.1583 -0.0581,8.314 -0.8674,1.7714 -2.1461,2.9744 -3.8358,3.5915 -1.6932,0.6242 -3.3911,0.5193 -5.0939,-0.3143 -2.3544,-1.1526 -3.6847,-3.0229 -3.9835,-5.6075 -0.2991,-2.5849 0.4516,-5.7161 2.2521,-9.394 l 0.4453,-0.9094 -2.5985,-1.2722 c -2.5033,-1.2254 -4.3852,-0.5434 -5.6548,2.05 -0.9825,2.0075 -1.4199,4.5153 -1.3088,7.5178 l -3.2156,-1.5744 c 0.1942,-3.145 0.8583,-5.8762 1.9891,-8.1867 1.1642,-2.378 2.5679,-3.8702 4.2111,-4.4603 1.6461,-0.597 3.6057,-0.3391 5.8785,0.7738 l 9.7492,4.7727 c 2.2323,1.0928 3.6851,0.9604 4.3543,-0.407 0.0825,-0.1684 0.1775,-0.4309 0.2846,-0.7875 l 2.3063,0.7866 c -0.005,1.0919 -0.269,2.1648 -0.79,3.229 -0.8873,1.8119 -2.53,2.4358 -4.9315,1.8779 z m -2.4106,-0.4703 -5.5431,-2.7136 -0.6508,1.2263 c -1.0551,2.1555 -1.5055,4.0893 -1.355,5.8085 0.1613,1.7155 0.9037,2.897 2.2331,3.5478 0.9292,0.455 1.8783,0.5105 2.8426,0.1727 0.9678,-0.3445 1.6858,-0.9868 2.1509,-1.9367 0.7912,-1.6169 0.8964,-3.6527 0.3223,-6.105 z m 9.9258,-22.8977 -1.5261,1.9772 c 0.1842,1.4307 0.6953,3.1799 1.5477,5.2401 l 1.0885,2.583 c 0.4827,1.1304 0.9142,2.1169 1.2898,2.9659 l -2.9693,3.8471 c -0.6103,-1.7685 -1.2847,-3.4543 -2.0231,-5.057 l -0.5128,-1.1154 c -1.2487,-2.6975 -1.7751,-4.8093 -1.5786,-6.3249 -1.347,0.8552 -2.7527,1.2673 -4.231,1.2537 -1.4735,-0.0193 -2.7845,-0.4722 -3.9266,-1.3535 -2.0633,-1.5925 -2.8176,-3.7185 -2.2518,-6.38 0.2698,-1.364 1.4224,-3.3644 3.4662,-6.0125 l 2.9282,-3.7939 19.0168,14.6764 -2.6394,3.42 z m -8.755,-6.7566 -0.7424,0.9621 c -2.1079,2.7311 -2.1569,4.8722 -0.1477,6.4227 2.1053,1.6248 4.2619,1.006 6.4703,-1.8558 l 0.5913,-0.766 z m 34.6515,-7.5285 -14.885,-18.8544 13.6335,-10.7634 2.359,2.9882 -10.2427,8.0867 12.526,15.8658 z m 26.1099,-17.881 c -3.0308,1.7558 -5.9961,2.1728 -8.8897,1.2475 -2.9001,-0.9212 -5.3161,-3.0574 -7.251,-6.3975 -1.9315,-3.3335 -2.5787,-6.4854 -1.9315,-9.453 0.6406,-2.9639 2.4772,-5.3288 5.508,-7.0846 3.0308,-1.7558 5.9964,-2.1727 8.886,-1.254 2.8964,0.9147 5.3087,3.0441 7.24,6.3776 1.9349,3.3401 2.586,6.4987 1.9428,9.4729 -0.6369,2.9704 -2.4743,5.3353 -5.5046,7.0911 z m -1.6424,-2.8199 c 1.8494,-1.0715 2.8851,-2.6056 3.0963,-4.6052 0.2087,-1.9888 -0.426,-4.2664 -1.9029,-6.8153 -1.4729,-2.543 -3.1291,-4.2197 -4.9583,-5.0284 -1.8321,-0.7982 -3.6783,-0.6627 -5.5276,0.4085 -1.8561,1.0752 -2.8913,2.6093 -3.0974,4.5881 -0.2084,1.9891 0.4289,4.2563 1.902,6.7989 1.4766,2.549 3.1303,4.2364 4.9593,5.0449 1.8266,0.8189 3.6725,0.6837 5.5286,-0.3915 z m 20.3358,2.213 -10.6832,-30.979 4.0841,-1.4082 1.48,4.2919 c 0.5774,-3.7548 2.5475,-6.2084 5.9015,-7.365 2.7153,-0.9363 5.1919,-0.6794 7.4389,0.775 2.247,1.4545 3.9651,3.9062 5.1545,7.3556 1.2955,3.7562 1.4556,7.0969 0.4833,10.0052 -0.97,2.9154 -2.8992,4.8671 -5.7778,5.8598 -2.6728,0.9218 -5.2537,0.6613 -7.738,-0.7912 l 3.7408,10.8477 z m -0.6347,-15.0911 c 2.7584,1.1662 5.0927,1.4241 6.9999,0.7665 1.8788,-0.648 3.0591,-1.942 3.5359,-3.8724 0.4836,-1.9324 0.2282,-4.3296 -0.7616,-7.2003 -1.8321,-5.3132 -4.493,-7.3684 -7.981,-6.1653 -2.2833,0.7874 -4.081,2.7978 -5.3912,6.0383 z m 34.2751,-2.5483 c -3.4682,0.4898 -6.3731,-0.2367 -8.7077,-2.1807 -2.342,-1.9426 -3.7797,-4.8297 -4.3192,-8.6516 -0.5385,-3.8149 0.0448,-6.9792 1.7586,-9.4867 1.7062,-2.5067 4.2965,-4.0094 7.7647,-4.4989 3.4682,-0.4896 6.3731,0.2372 8.7069,2.1733 2.3411,1.9355 3.7775,4.8147 4.316,8.6295 0.5398,3.822 -0.0428,6.9939 -1.7552,9.5091 -1.7056,2.5141 -4.2962,4.0164 -7.7641,4.506 z m -0.4637,-3.2301 c 2.1166,-0.2988 3.6524,-1.332 4.5989,-3.1059 0.94,-1.7652 1.2067,-4.1145 0.7948,-7.0314 -0.4107,-2.9097 -1.3164,-5.0856 -2.7082,-6.5219 -1.3986,-1.4275 -3.16,-1.995 -5.2764,-1.6963 -2.124,0.2999 -3.6598,1.3329 -4.5935,3.0898 -0.9397,1.7651 -1.2002,4.1057 -0.7895,7.0155 0.4119,2.9171 1.3113,5.1015 2.7029,6.5378 1.3855,1.4445 3.1476,2.0123 5.271,1.7124 z m 15.4752,5.9511 0.494,-9.2784 2.217,0.1182 c 1.7989,-2.0452 3.1374,-4.4702 4.0142,-7.2604 0.8776,-2.7898 1.4292,-6.3839 1.663,-10.7742 l 0.1012,-1.9009 15.4131,0.8209 -1.0751,20.1858 4.3143,0.2299 -0.4944,9.2781 -4.314,-0.2296 0.2917,-5.4766 -18.0196,-0.9598 -0.2914,5.4766 z m 18.5136,-8.3186 0.9017,-16.9274 -6.7853,-0.3614 -0.0281,0.5284 c -0.1834,3.4398 -0.6508,6.4329 -1.4031,8.9952 -0.7517,2.5546 -1.8711,4.9535 -3.3574,7.1966 z m 30.9294,8.2913 c -2.9106,0.2654 -5.3615,0.1934 -7.3522,-0.216 -3.159,-0.6494 -5.5321,-2.3638 -7.1289,-5.1366 -1.595,-2.7805 -2.0282,-5.9621 -1.2934,-9.5358 0.7852,-3.8182 2.4264,-6.5883 4.9215,-8.2964 2.4967,-1.7155 5.5885,-2.1903 9.2761,-1.4321 1.8144,0.3731 3.8049,1.0446 5.9496,2.0101 l -0.7393,3.596 c -2.2416,-1.2013 -4.1153,-1.9568 -5.614,-2.2649 -2.1744,-0.447 -4.0847,0.0162 -5.7211,1.3842 -1.6365,1.3677 -2.7392,3.416 -3.2987,6.139 -0.5431,2.6416 -0.3056,4.9113 0.7024,6.823 1.0097,1.9043 2.5982,3.079 4.7804,3.5277 1.9318,0.3971 4.0189,0.3019 6.2753,-0.2826 z m 14.0828,-4.9084 -4.047,9.4099 -3.9688,-1.7071 9.4912,-22.0671 3.9685,1.7067 -4.1544,9.6596 0.3739,0.1364 c 0.9884,0.3591 1.762,0.4785 2.3303,0.3526 0.5616,-0.1287 1.2977,-0.5683 2.2156,-1.3167 l 1.2583,-1.046 0.8436,-0.7472 c 1.8714,-1.6373 3.3125,-2.5962 4.3305,-2.8737 1.0173,-0.2781 2.3513,-0.0579 4.005,0.6534 l -1.2894,2.9976 c -0.792,-0.3407 -1.4653,-0.4079 -2.0126,-0.1993 -0.5508,0.199 -1.4403,0.8442 -2.6663,1.9287 l -0.735,0.646 -0.9834,0.9006 c -1.1236,0.9805 -2.4964,1.5333 -4.1244,1.6554 0.9272,0.8428 1.5432,1.7082 1.8561,2.5744 0.3104,0.8737 0.5437,2.4376 0.7039,4.6854 l 0.1403,1.8941 c 0.1593,2.1161 0.3762,3.928 0.6534,5.4287 l -4.3818,-1.8845 c -0.0652,-1.0066 -0.1395,-1.9925 -0.233,-2.9701 l -0.2591,-2.3973 c -0.3093,-3.1345 -0.7484,-5.3215 -1.3173,-6.5614 z m 26.1867,21.3446 c -3.4727,0.6658 -6.2277,0.3639 -8.2647,-0.906 -1.6735,-1.0434 -2.7396,-2.4381 -3.1816,-4.1819 -0.4481,-1.7482 -0.1703,-3.4266 0.8329,-5.0355 1.3867,-2.2244 3.3825,-3.3571 5.9842,-3.3908 2.6019,-0.0337 5.6404,1.0327 9.1153,3.1989 l 0.8592,0.5355 1.5307,-2.4548 c 1.4743,-2.3656 0.9879,-4.307 -1.4626,-5.8346 -1.8967,-1.1823 -4.347,-1.8731 -7.3452,-2.0687 l 1.8941,-3.0385 c 3.1091,0.5139 5.7583,1.4533 7.9413,2.8143 2.2467,1.4006 3.5878,2.9488 4.0076,4.6437 0.4261,1.6982 -0.0306,3.6215 -1.3691,5.769 l -5.7424,9.2115 c -1.315,2.109 -1.3315,3.5677 -0.0397,4.373 0.159,0.0992 0.4107,0.2203 0.7543,0.3634 l -1.0177,2.2142 c -1.0854,-0.116 -2.1257,-0.4887 -3.1314,-1.1155 -1.7118,-1.0672 -2.1651,-2.7652 -1.3652,-5.0972 z m 0.7138,-2.3502 3.2649,-5.237 -1.1537,-0.7728 c -2.0364,-1.2693 -3.914,-1.9148 -5.6395,-1.9403 -1.7232,-0.0147 -2.9741,0.6032 -3.7576,1.8595 -0.5474,0.8782 -0.699,1.8162 -0.4615,2.81 0.2441,0.9978 0.8099,1.7779 1.7073,2.3372 1.5276,0.9524 3.5422,1.2645 6.0401,0.9434 z m 21.9368,11.1704 -1.8967,-1.6251 c -1.438,0.1112 -3.2111,0.5321 -5.3121,1.2785 l -2.6354,0.955 c -1.1537,0.4243 -2.1606,0.8047 -3.0277,1.1367 l -3.6907,-3.1621 c 1.7974,-0.519 3.5155,-1.1064 5.1537,-1.762 l 1.1403,-0.4555 c 2.7573,-1.1092 4.8932,-1.5271 6.3973,-1.2535 -0.7855,-1.389 -1.1254,-2.814 -1.0361,-4.2894 0.0947,-1.4706 0.6134,-2.7567 1.5523,-3.8523 1.6957,-1.9794 3.8571,-2.6243 6.4865,-1.9233 1.3484,0.3393 3.2873,1.5922 5.8274,3.7687 l 3.6397,3.1178 -15.6282,18.2429 -3.2806,-2.8105 z m 7.1948,-8.3987 -0.9229,-0.7906 c -2.6201,-2.2445 -4.7557,-2.4029 -6.4069,-0.4754 -1.7302,2.0194 -1.2223,4.2049 1.5231,6.5568 l 0.735,0.6296 z m 4.3269,33.1245 3.1739,-2.262 c 0.4071,2.2889 1.3283,4.4413 2.7689,6.4627 2.3329,3.274 5.7926,3.7556 10.3881,1.4573 l -4.8659,-6.8287 2.6574,-1.8938 4.866,6.8286 c 1.8703,-1.3328 2.9733,-2.8831 3.3316,-4.6579 0.3523,-1.7708 -0.1004,-3.5384 -1.3539,-5.2976 -1.0882,-1.527 -2.7785,-2.9101 -5.0675,-4.1434 l 3.0269,-2.1569 c 1.9335,1.256 3.6059,2.8735 5.0159,4.8523 2.0021,2.8097 2.6943,5.6041 2.0758,8.3934 -0.6188,2.7893 -2.4795,5.2937 -5.5925,7.5121 -3.1989,2.2796 -6.3969,3.2324 -9.5777,2.8559 -3.1807,-0.3764 -5.8093,-2.0214 -7.8769,-4.9229 -1.2577,-1.7649 -2.2479,-3.8316 -2.9701,-6.1991 z m 12.4208,18.0675 3.4812,-1.5968 c 0.5108,0.9865 1.2031,1.6263 2.073,1.9284 0.87,0.3022 2.1215,0.3305 3.7673,0.0956 3.5492,-0.506 7.8057,-1.8976 12.7836,-4.1811 l 2.1493,-0.9859 6.4542,14.0703 -21.8339,10.0159 -1.8014,-3.9268 18.868,-8.655 -2.9081,-6.3397 -0.3847,0.1763 c -6.0692,2.7842 -11.025,4.1746 -14.8595,4.1678 -3.7425,-0.0244 -6.3382,-1.6061 -7.789,-4.769 z m 17.7163,43.9908 c -1.66,-2.5372 -2.7811,-4.7948 -3.3656,-6.7807 -0.9975,-3.3888 -0.6778,-6.4769 0.951,-9.2628 1.6291,-2.7859 4.2361,-4.71 7.8307,-5.7679 3.4855,-1.0256 6.6229,-0.9329 9.415,0.286 2.7848,1.2209 4.608,3.2953 5.4697,6.2237 0.8153,2.7701 0.4536,5.2064 -1.0876,7.3015 -1.5406,2.0957 -4.1301,3.6785 -7.7752,4.7515 l -1.2815,0.3534 -4.2565,-14.4618 c -5.3294,2.2255 -7.2975,5.7053 -5.9063,10.4324 0.5103,1.7337 1.6277,3.7111 3.3545,5.9394 z m 9.0943,-18.0623 2.9727,10.1015 c 4.29,-1.2625 5.9673,-3.484 5.0332,-6.6569 -0.9399,-3.1946 -3.6082,-4.3404 -8.0059,-3.4446 z m 2.2921,29.0798 -10.1979,0.9632 -0.4062,-4.301 23.9151,-2.2587 0.4062,4.3007 -10.4684,0.9888 0.0601,0.3937 c 0.1588,1.0395 0.4252,1.7753 0.8082,2.2139 0.3824,0.4308 1.1214,0.8659 2.2181,1.3121 l 1.5213,0.6024 1.0605,0.3818 c 2.3343,0.8566 3.8673,1.6611 4.5992,2.4208 0.7319,0.7594 1.1786,2.0356 1.3479,3.8276 l -3.2491,0.3067 c -0.0808,-0.8583 -0.345,-1.4816 -0.7906,-1.8615 -0.4385,-0.3878 -1.4315,-0.8589 -2.971,-1.4142 l -0.9195,-0.3348 -1.262,-0.4308 c -1.3995,-0.5157 -2.543,-1.4551 -3.4311,-2.8248 -0.2945,1.2178 -0.7582,2.1734 -1.3685,2.8636 -0.6174,0.6914 -1.8777,1.6464 -3.7735,2.8653 l -1.5945,1.0318 c -1.7802,1.1551 -3.2661,2.2144 -4.4495,3.1776 l -0.4488,-4.7489 c 0.8521,-0.54 1.6815,-1.0777 2.4942,-1.6293 l 1.9792,-1.3774 c 2.6019,-1.775 4.3101,-3.2094 5.1253,-4.3033 z m -8.8962,25.3973 20.1861,1.0751 0.462,-8.6726 3.8016,0.2027 -1.1535,21.659 -3.8021,-0.2024 0.4621,-8.6729 -20.1858,-1.0749 z m -9.8427,15.7971 32.0881,6.6459 -0.8759,4.2301 -4.4461,-0.9207 c 2.933,2.4149 4.0351,5.3623 3.3157,8.8362 -0.5828,2.8125 -2.0687,4.8104 -4.4671,5.9987 -2.3984,1.1882 -5.3839,1.4122 -8.957,0.6723 -3.8905,-0.8059 -6.8442,-2.3748 -8.8472,-4.697 -2.0103,-2.3232 -2.7025,-4.979 -2.0848,-7.9608 0.5734,-2.7686 2.116,-4.854 4.634,-6.2473 l -11.2359,-2.3272 z m 13.2964,7.1655 c -2.412,1.7753 -3.8262,3.6499 -4.2355,5.6253 -0.4028,1.9466 0.1063,3.6221 1.5219,5.0182 1.4142,1.4034 3.6054,2.4086 6.5787,3.0246 5.5034,1.1398 8.6295,-0.097 9.3778,-3.7103 0.4896,-2.365 -0.3197,-4.9377 -2.4361,-7.7196 z m -15.5718,30.6822 c 1.3836,-3.2176 3.5135,-5.3221 6.3879,-6.3068 2.8766,-0.9916 6.0902,-0.7197 9.636,0.8053 3.5394,1.5222 5.9398,3.6649 7.1918,6.4321 1.2549,2.7604 1.1926,5.7543 -0.191,8.9719 -1.3839,3.2173 -3.5141,5.3221 -6.3814,6.3099 -2.8698,0.9944 -6.0763,0.7257 -9.6154,-0.7965 -3.5461,-1.525 -5.9536,-3.6706 -7.2125,-6.4409 -1.2619,-2.7635 -1.1993,-5.7574 0.1846,-8.975 z m 3.0005,1.2824 c -0.8442,1.9635 -0.76,3.8126 0.2641,5.5428 1.0197,1.7204 2.8883,3.1692 5.5945,4.3328 2.6997,1.1611 5.0292,1.5182 6.9795,1.0752 1.9462,-0.453 3.3468,-1.6634 4.1913,-3.627 0.8475,-1.9703 0.7628,-3.8194 -0.2532,-5.5298 -1.0199,-1.7203 -2.8842,-3.1589 -5.5839,-4.32 -2.7063,-1.1639 -5.04,-1.5307 -6.9903,-1.0879 -1.9542,0.4331 -3.3545,1.6435 -4.202,3.6139 z m -18.529,29.713 c 0.7622,-2.8216 1.6807,-5.0947 2.7559,-6.8196 1.7061,-2.7368 4.138,-4.367 7.2926,-4.9017 3.1615,-0.53 6.2955,0.1687 9.3915,2.0988 3.308,2.0622 5.3359,4.5635 6.071,7.4962 0.7418,2.937 0.1136,6.0013 -1.8783,9.1962 -0.9799,1.5721 -2.3008,3.2054 -3.9509,4.8815 l -3.1156,-1.9423 c 1.9049,-1.6849 3.2641,-3.1796 4.0734,-4.4779 1.1744,-1.8841 1.4035,-3.8361 0.6891,-5.8458 -0.7146,-2.0095 -2.2524,-3.7548 -4.6114,-5.2254 -2.2887,-1.427 -4.5,-1.9922 -6.6427,-1.7107 -2.1362,0.2857 -3.7896,1.3674 -4.9683,3.2575 -1.0431,1.6739 -1.6784,3.6641 -1.9136,5.9834 z m -15.5588,18.4439 c 1.2232,-2.7743 2.5053,-4.9445 3.852,-6.5168 2.2983,-2.6828 5.0618,-4.0972 8.2854,-4.2492 3.2238,-0.1519 6.2575,0.9856 9.1029,3.4234 2.7595,2.3638 4.3911,5.0454 4.8903,8.0507 0.4935,3.0002 -0.2525,5.6594 -2.2385,7.9775 -1.8785,2.1929 -4.1185,3.2171 -6.7153,3.0663 -2.5965,-0.15 -5.3348,-1.459 -8.2204,-3.9311 l -0.9944,-0.8819 9.807,-11.4485 c -4.7699,-3.2565 -8.7599,-3.011 -11.9659,0.7313 -1.1758,1.3725 -2.2249,3.3868 -3.1524,6.0489 z m 20.101,-2.2156 -6.8504,7.9969 c 3.3959,2.9092 6.1724,3.1053 8.3242,0.5935 2.1665,-2.529 1.6736,-5.3906 -1.4738,-8.5904 z m -29.9956,9.6772 12.5254,15.8661 6.8168,-5.3813 2.3593,2.9883 -17.0243,13.4396 -2.3593,-2.9882 6.817,-5.3813 -12.5254,-15.8664 z m -14.1761,10.7561 12.0416,20.7856 -3.738,2.1654 -4.862,-8.3925 -1.8108,1.0488 c -5.6976,3.3009 -9.7132,2.9384 -12.0495,-1.0948 -2.45,-4.2287 -0.646,-8.1025 5.4156,-11.6141 z m -2.1021,4.9893 -1.4993,0.8682 c -3.2315,1.8723 -4.1698,3.9784 -2.8139,6.3184 0.6777,1.1702 1.5256,1.7964 2.5364,1.8652 1.0176,0.0655 2.3879,-0.3965 4.127,-1.4042 l 1.5573,-0.9023 z"
     style="fill:#ffffff;fill-rule:evenodd"
     id="path30" />
</svg>
